<svg width="141" height="37" viewBox="0 0 141 37" fill="none" xmlns="http://www.w3.org/2000/svg">
<path d="M37.0103 24.8472C37.0103 26.271 36.4917 27.3652 35.4546 28.1299C34.4175 28.8857 32.9321 29.2637 30.9985 29.2637C29.0562 29.2637 27.4961 28.9692 26.3184 28.3804V25.7041C28.0322 26.4951 29.6274 26.8906 31.104 26.8906C33.0112 26.8906 33.9648 26.3149 33.9648 25.1636C33.9648 24.7944 33.8594 24.4868 33.6484 24.2407C33.4375 23.9946 33.0903 23.7397 32.6069 23.4761C32.1235 23.2124 31.4512 22.9136 30.5898 22.5796C28.9111 21.9292 27.7729 21.2788 27.1753 20.6284C26.5864 19.978 26.292 19.1343 26.292 18.0972C26.292 16.8491 26.793 15.8823 27.7949 15.1968C28.8057 14.5024 30.1768 14.1553 31.9082 14.1553C33.6221 14.1553 35.2437 14.5024 36.7729 15.1968L35.771 17.5303C34.1978 16.8799 32.875 16.5547 31.8027 16.5547C30.168 16.5547 29.3506 17.0205 29.3506 17.9521C29.3506 18.4092 29.5615 18.7959 29.9834 19.1123C30.4141 19.4287 31.3457 19.8638 32.7783 20.4175C33.9824 20.8833 34.8569 21.3096 35.4019 21.6963C35.9468 22.083 36.3511 22.5312 36.6147 23.041C36.8784 23.542 37.0103 24.144 37.0103 24.8472ZM47.7681 29.2637C45.9224 29.2637 44.4897 28.6001 43.4702 27.2729H43.2856C43.4087 28.5034 43.4702 29.2505 43.4702 29.5142V35.4863H40.3721V14.4189H42.877C42.9473 14.6914 43.0923 15.3418 43.312 16.3701H43.4702C44.437 14.8936 45.8872 14.1553 47.8208 14.1553C49.6401 14.1553 51.0552 14.8145 52.0659 16.1328C53.0854 17.4512 53.5952 19.3013 53.5952 21.6831C53.5952 24.0649 53.0767 25.9238 52.0396 27.2598C51.0112 28.5957 49.5874 29.2637 47.7681 29.2637ZM47.0166 16.6865C45.7861 16.6865 44.8853 17.0469 44.314 17.7676C43.7515 18.4883 43.4702 19.6396 43.4702 21.2217V21.6831C43.4702 23.4585 43.7515 24.7461 44.314 25.5459C44.8765 26.3369 45.7949 26.7324 47.0693 26.7324C48.1416 26.7324 48.9678 26.293 49.5479 25.4141C50.1279 24.5352 50.418 23.2827 50.418 21.6567C50.418 20.022 50.1279 18.7871 49.5479 17.9521C48.9766 17.1084 48.1328 16.6865 47.0166 16.6865ZM63.562 29.2637C61.2944 29.2637 59.519 28.6045 58.2358 27.2861C56.9614 25.959 56.3242 24.1353 56.3242 21.8149C56.3242 19.4331 56.9175 17.561 58.104 16.1987C59.2905 14.8364 60.9209 14.1553 62.9951 14.1553C64.9199 14.1553 66.4404 14.7397 67.5566 15.9087C68.6729 17.0776 69.231 18.686 69.231 20.7339V22.4082H59.5146C59.5586 23.8232 59.9409 24.9131 60.6616 25.6777C61.3823 26.4336 62.3975 26.8115 63.707 26.8115C64.5684 26.8115 65.3682 26.7324 66.1064 26.5742C66.8535 26.4072 67.6533 26.1348 68.5059 25.7568V28.2749C67.75 28.6353 66.9854 28.8901 66.2119 29.0396C65.4385 29.189 64.5552 29.2637 63.562 29.2637ZM62.9951 16.502C62.0107 16.502 61.2197 16.814 60.6221 17.438C60.0332 18.062 59.6816 18.9717 59.5674 20.167H66.1855C66.168 18.9629 65.8779 18.0532 65.3154 17.438C64.7529 16.814 63.9795 16.502 62.9951 16.502ZM78.6309 29.2637C76.4248 29.2637 74.7461 28.6221 73.5947 27.3389C72.4521 26.0469 71.8809 24.1968 71.8809 21.7886C71.8809 19.3364 72.4785 17.4512 73.6738 16.1328C74.8779 14.8145 76.6138 14.1553 78.8813 14.1553C80.4194 14.1553 81.8037 14.4409 83.0342 15.0122L82.0981 17.5039C80.7886 16.9941 79.7075 16.7393 78.855 16.7393C76.3325 16.7393 75.0713 18.4136 75.0713 21.7622C75.0713 23.397 75.3833 24.6274 76.0073 25.4536C76.6401 26.271 77.563 26.6797 78.7759 26.6797C80.1558 26.6797 81.4609 26.3369 82.6914 25.6514V28.354C82.1377 28.6792 81.5444 28.9121 80.9116 29.0527C80.2876 29.1934 79.5273 29.2637 78.6309 29.2637ZM93.436 16.7656H89.8765V29H86.7651V16.7656H84.3657V15.3154L86.7651 14.3662V13.417C86.7651 11.6943 87.1694 10.4199 87.978 9.59375C88.7866 8.75879 90.0215 8.34131 91.6826 8.34131C92.7725 8.34131 93.8447 8.52148 94.8994 8.88184L94.082 11.2285C93.3174 10.9824 92.5879 10.8594 91.8936 10.8594C91.1904 10.8594 90.6763 11.0791 90.3511 11.5186C90.0347 11.9492 89.8765 12.5996 89.8765 13.4697V14.4189H93.436V16.7656ZM99.0127 29H95.9146V8.48633H99.0127V29ZM116.402 21.6831C116.402 24.0649 115.791 25.9238 114.569 27.2598C113.348 28.5957 111.647 29.2637 109.467 29.2637C108.105 29.2637 106.901 28.9561 105.855 28.3408C104.809 27.7256 104.005 26.8423 103.442 25.6909C102.88 24.5396 102.599 23.2036 102.599 21.6831C102.599 19.3188 103.205 17.4731 104.418 16.146C105.631 14.8188 107.34 14.1553 109.546 14.1553C111.656 14.1553 113.326 14.8364 114.556 16.1987C115.787 17.5522 116.402 19.3804 116.402 21.6831ZM105.789 21.6831C105.789 25.0493 107.033 26.7324 109.52 26.7324C111.981 26.7324 113.211 25.0493 113.211 21.6831C113.211 18.3521 111.972 16.6865 109.494 16.6865C108.193 16.6865 107.248 17.1172 106.659 17.9785C106.079 18.8398 105.789 20.0747 105.789 21.6831ZM131.932 29L130.047 22.1973C129.818 21.4766 129.405 19.8022 128.808 17.1743H128.689C128.179 19.5474 127.775 21.2305 127.476 22.2236L125.538 29H122.11L118.023 14.4189H121.188L123.046 21.604C123.468 23.3794 123.767 24.8999 123.943 26.1655H124.022C124.11 25.5239 124.242 24.79 124.417 23.9639C124.602 23.1289 124.76 22.5049 124.892 22.0918L127.107 14.4189H130.508L132.657 22.0918C132.789 22.5225 132.952 23.1816 133.145 24.0693C133.347 24.957 133.466 25.647 133.501 26.1392H133.606C133.738 25.0581 134.046 23.5464 134.529 21.604L136.415 14.4189H139.526L135.413 29H131.932Z" fill="#574897"/>
<path d="M3.5 31.9L3.5 18.2603" stroke="#004C97" stroke-width="5" stroke-linecap="round" stroke-linejoin="round"/>
<line x1="3.4833" y1="31.931" x2="16.8795" y2="21.4648" stroke="#574897" stroke-width="5" stroke-linecap="round" stroke-linejoin="round"/>
<line x1="3.61563" y1="10.8692" x2="17.0118" y2="21.3354" stroke="#45B9D9" stroke-width="5" stroke-linecap="round" stroke-linejoin="round"/>
<path d="M3.5 22.3L3.5 10.7892" stroke="#004C97" stroke-width="5" stroke-linecap="round" stroke-linejoin="round"/>
</svg>
