<svg id="Layer_1" data-name="Layer 1" xmlns="http://www.w3.org/2000/svg" viewBox="0 0 340.16 107.58"><defs><style>.cls-1{fill:#65696c;}.cls-2{fill:#231f20;}.cls-3{fill:#6469af;}.cls-4{fill:#7b7fba;}.cls-5{fill:#8f91c3;}.cls-6{fill:#a6a8cf;}.cls-7{fill:#babcdc;}.cls-8{fill:#d1d3e5;}.cls-9{fill:#e8e8f4;}.cls-10{fill:#fff;}</style></defs><title>SF_Logo</title><g id="path3418"><path class="cls-1" d="M251.14,333.55c5,4.27,10.37,6.48,16.62,6.48,11.21,0,15.63-7,15.63-12.42s-3.2-8.62-9.76-9.84l-8-1.53c-3.05-.53-4.81-1.67-4.81-3.88,0-3,3.36-4.65,6.79-4.65,2.59,0,6,.83,9.91,4.11l4.5-5.57c-5-3.58-9.53-5.1-14.64-5.1-9.23,0-14.49,5.79-14.49,12,0,5.27,2.9,8.62,13.27,10.53l4.5.83c2.89.54,4.8,1.83,4.8,4.27,0,2.06-2.74,4.66-7.32,4.66-4.12,0-8.77-2.37-11.59-5.42l-5.41,5.49Z" transform="translate(-251.14 -243.91)"/></g><path class="cls-1" d="M298.51,306.35h.15a15.12,15.12,0,0,1,12.13-5.49c12.12,0,19.13,9.91,19.13,19.44,0,9.07-7.55,19.44-19.52,19.44-5.48,0-9.68-2.36-11.74-5.49h-.15v17.24h-7.93V301.85h7.93Zm11.28,2a12,12,0,1,0,11.75,12A11.87,11.87,0,0,0,309.79,308.33Z" transform="translate(-251.14 -243.91)"/><path class="cls-1" d="M372.62,330.75c-4.42,5.56-10.52,8.92-17.16,9-12.88,0-20.35-9.68-20.35-19.44s7.47-19.44,20.35-19.44c7.71,0,19.15,6.32,19.15,20.74v1.45H344c.46,5.64,5.72,9.68,11.29,9.68,4.27,0,7.93-2.06,10.67-5.72Zm-7.32-14.26c-1.68-5.65-5.87-8.62-10.9-8.62S345.25,311,344,316.49Z" transform="translate(-251.14 -243.91)"/><path class="cls-1" d="M409.76,313.9c-2.14-3.28-5.11-5.57-9.61-5.57a12,12,0,1,0,0,23.94c4.35,0,7.47-2.21,9.61-5.57l6.93,4.12a19.73,19.73,0,0,1-16.54,8.92c-12.89,0-20.36-9.68-20.36-19.44s7.47-19.44,20.36-19.44c7.85,0,13,3.73,16.54,8.92Z" transform="translate(-251.14 -243.91)"/><path class="cls-2" d="M425.54,316.94h-5.19v-7.47h5.19v-6.25c0-6.86,4.19-13.34,13.72-13.34a17.82,17.82,0,0,1,6.1,1L442.08,298a8.31,8.31,0,0,0-3.5-.68,5.17,5.17,0,0,0-5.11,5.41v6.71h7.93v7.47h-7.93v34.55h-7.93Z" transform="translate(-251.14 -243.91)"/><path class="cls-2" d="M455.58,290.87v33c0,4.27.91,5.8,3.28,7.17l4.27,2.44-3.51,6.25c-8.16-3.88-12-6.71-12-14.41V290.87Z" transform="translate(-251.14 -243.91)"/><path class="cls-2" d="M484.93,300.86c12.89,0,20.36,9.68,20.36,19.44s-7.47,19.44-20.36,19.44-20.35-9.68-20.35-19.44S472.05,300.86,484.93,300.86Zm0,31.41a12,12,0,1,0-12-12A11.75,11.75,0,0,0,484.93,332.27Z" transform="translate(-251.14 -243.91)"/><path class="cls-2" d="M508,301.85h8.54l6.56,20h.15l7.7-17.69,7.7,17.69h.15l6.56-20h8.54L539.6,339.74l-8.61-20h-.16l-8.61,20Z" transform="translate(-251.14 -243.91)"/><path class="cls-3" d="M591.21,270.71v-.11c0-.56.09-1.12.09-1.7a25,25,0,1,0-29.45,24.58v7c14.43-2.16,27.24-13.19,29.14-27.85.09-.61.17-1.22.21-1.84C591.2,270.74,591.21,270.73,591.21,270.71Z" transform="translate(-251.14 -243.91)"/><g id="rect4005-5"><path class="cls-4" d="M576.23,269.8a7,7,0,0,0-4,1.14,7,7,0,0,0,4.14,4.72,5.36,5.36,0,0,0,2.15.48c2.74.15,4.08-3.24,1.95-4.77a11.18,11.18,0,0,0-1.81-1A6.54,6.54,0,0,0,576.23,269.8Z" transform="translate(-251.14 -243.91)"/></g><g id="rect4005-5-2" data-name="rect4005-5"><path class="cls-5" d="M568.8,274.76a6.16,6.16,0,0,0-.62,6.1,5.87,5.87,0,0,0,1.05,1.66c1.67,1.83,5.2.48,5-1.81a4.73,4.73,0,0,0-.48-2A7,7,0,0,0,568.8,274.76Z" transform="translate(-251.14 -243.91)"/></g><g id="rect4005-5-3" data-name="rect4005-5"><path class="cls-6" d="M563.13,274.61a6.72,6.72,0,0,0-4.87,4,4.65,4.65,0,0,0-.47,1.95c-.15,2.6,3.38,4,4.91,2a10.78,10.78,0,0,0,1-1.81A6.25,6.25,0,0,0,563.13,274.61Z" transform="translate(-251.14 -243.91)"/></g><g id="rect4005-5-4" data-name="rect4005-5"><path class="cls-7" d="M555.41,269.94a6.54,6.54,0,0,0-2.48.53,5.19,5.19,0,0,0-1.81,1.09,2.7,2.7,0,0,0,2.09,4.72,5,5,0,0,0,2.15-.47,6.44,6.44,0,0,0,3.95-4.72A6.79,6.79,0,0,0,555.41,269.94Z" transform="translate(-251.14 -243.91)"/></g><g id="rect4005-5-5" data-name="rect4005-5"><path class="cls-8" d="M552.74,260.56a2.63,2.63,0,0,0-1.48,4.72,11.6,11.6,0,0,0,1.81,1.09,6.88,6.88,0,0,0,6.43-.62,7.06,7.06,0,0,0-4.14-4.72,5.52,5.52,0,0,0-2.15-.47A2.46,2.46,0,0,0,552.74,260.56Z" transform="translate(-251.14 -243.91)"/></g><g id="rect4005-5-6" data-name="rect4005-5"><path class="cls-9" d="M560.51,253.22a2.91,2.91,0,0,0-2.72,2.76,4.89,4.89,0,0,0,.48,2,6.94,6.94,0,0,0,5,4,6.19,6.19,0,0,0,.63-6.1,6.34,6.34,0,0,0-1.06-1.67A2.67,2.67,0,0,0,560.51,253.22Z" transform="translate(-251.14 -243.91)"/><path class="cls-9" d="M560.51,253.22a2.91,2.91,0,0,0-2.72,2.76,4.89,4.89,0,0,0,.48,2,6.94,6.94,0,0,0,5,4,6.19,6.19,0,0,0,.63-6.1,6.34,6.34,0,0,0-1.06-1.67A2.67,2.67,0,0,0,560.51,253.22Z" transform="translate(-251.14 -243.91)"/><path class="cls-9" d="M560.51,253.22a2.91,2.91,0,0,0-2.72,2.76,4.89,4.89,0,0,0,.48,2,6.94,6.94,0,0,0,5,4,6.19,6.19,0,0,0,.63-6.1,6.34,6.34,0,0,0-1.06-1.67A2.67,2.67,0,0,0,560.51,253.22Z" transform="translate(-251.14 -243.91)"/><path class="cls-9" d="M560.51,253.22a2.91,2.91,0,0,0-2.72,2.76,4.89,4.89,0,0,0,.48,2,6.94,6.94,0,0,0,5,4,6.19,6.19,0,0,0,.63-6.1,6.34,6.34,0,0,0-1.06-1.67A2.67,2.67,0,0,0,560.51,253.22Z" transform="translate(-251.14 -243.91)"/></g><g id="rect4005-5-7" data-name="rect4005-5"><path class="cls-10" d="M572.49,253.07a2.74,2.74,0,0,0-2.39,1,11.18,11.18,0,0,0-1,1.81,5.85,5.85,0,0,0,.76,6.1,6.71,6.71,0,0,0,4.86-4,4.73,4.73,0,0,0,.48-2A2.86,2.86,0,0,0,572.49,253.07Z" transform="translate(-251.14 -243.91)"/><path class="cls-10" d="M572.49,253.07a2.74,2.74,0,0,0-2.39,1,11.18,11.18,0,0,0-1,1.81,5.85,5.85,0,0,0,.76,6.1,6.71,6.71,0,0,0,4.86-4,4.73,4.73,0,0,0,.48-2A2.86,2.86,0,0,0,572.49,253.07Z" transform="translate(-251.14 -243.91)"/><path class="cls-10" d="M572.49,253.07a2.74,2.74,0,0,0-2.39,1,11.18,11.18,0,0,0-1,1.81,5.85,5.85,0,0,0,.76,6.1,6.71,6.71,0,0,0,4.86-4,4.73,4.73,0,0,0,.48-2A2.86,2.86,0,0,0,572.49,253.07Z" transform="translate(-251.14 -243.91)"/><path class="cls-10" d="M572.49,253.07a2.74,2.74,0,0,0-2.39,1,11.18,11.18,0,0,0-1,1.81,5.85,5.85,0,0,0,.76,6.1,6.71,6.71,0,0,0,4.86-4,4.73,4.73,0,0,0,.48-2A2.86,2.86,0,0,0,572.49,253.07Z" transform="translate(-251.14 -243.91)"/></g></svg>